<?xml version="1.0" encoding="UTF-8" standalone="no"?>
<svg
   xmlns:dc="http://purl.org/dc/elements/1.1/"
   xmlns:cc="http://creativecommons.org/ns#"
   xmlns:rdf="http://www.w3.org/1999/02/22-rdf-syntax-ns#"
   xmlns:svg="http://www.w3.org/2000/svg"
   xmlns="http://www.w3.org/2000/svg"
   xmlns:sodipodi="http://sodipodi.sourceforge.net/DTD/sodipodi-0.dtd"
   xmlns:inkscape="http://www.inkscape.org/namespaces/inkscape"
   version="1.1"
   id="mdi-account-multiple"
   width="20"
   height="15.000052"
   viewBox="0 0 20 15.000052"
   sodipodi:docname="group.svg"
   inkscape:version="1.0.1 (0767f8302a, 2020-10-17)">
  <metadata
     id="metadata9">
    <rdf:RDF>
      <cc:Work
         rdf:about="">
        <dc:format>image/svg+xml</dc:format>
        <dc:type
           rdf:resource="http://purl.org/dc/dcmitype/StillImage" />
        <dc:title></dc:title>
      </cc:Work>
    </rdf:RDF>
  </metadata>
  <defs
     id="defs7" />
  <sodipodi:namedview
     pagecolor="#ffffff"
     bordercolor="#666666"
     borderopacity="1"
     objecttolerance="10"
     gridtolerance="10"
     guidetolerance="10"
     inkscape:pageopacity="0"
     inkscape:pageshadow="2"
     inkscape:window-width="1920"
     inkscape:window-height="1052"
     id="namedview5"
     showgrid="false"
     fit-margin-top="0"
     fit-margin-left="0"
     fit-margin-right="0"
     fit-margin-bottom="0"
     inkscape:zoom="30.625"
     inkscape:cx="10"
     inkscape:cy="8.0000526"
     inkscape:window-x="1920"
     inkscape:window-y="0"
     inkscape:window-maximized="1"
     inkscape:current-layer="mdi-account-multiple" />
  <path
     d="m 14,13.000053 v 2 H 0 v -2 c 0,0 0,-4.0000004 7,-4.0000004 7,0 7,4.0000004 7,4.0000004 M 10.5,3.5000526 a 3.5,3.5 0 1 0 -3.5,3.5 3.5,3.5 0 0 0 3.5,-3.5 m 3.44,5.5 A 5.32,5.32 0 0 1 16,13.000053 v 2 h 4 v -2 c 0,0 0,-3.6300004 -6.06,-4.0000004 M 13,5.255347e-5 A 3.39,3.39 0 0 0 11.07,0.59005255 a 5,5 0 0 1 0,5.82000005 3.39,3.39 0 0 0 1.93,0.59 3.5,3.5 0 0 0 0,-7.00000004653 z"
     id="path2" />
</svg>
